<svg id="Layer_1" data-name="Layer 1" xmlns="http://www.w3.org/2000/svg" xmlns:xlink="http://www.w3.org/1999/xlink" viewBox="0 0 2156 1329"><defs><style>.cls-1{fill:url(#linear-gradient);}.cls-2{fill:url(#linear-gradient-2);}.cls-3{fill:url(#linear-gradient-3);}</style><linearGradient id="linear-gradient" x1="1507.55" y1="1460" x2="662" y2="1460" gradientUnits="userSpaceOnUse"><stop offset="0" stop-color="#6156f9"/><stop offset="1" stop-color="#1a129f"/></linearGradient><linearGradient id="linear-gradient-2" x1="1531.91" y1="576" x2="684.5" y2="576" xlink:href="#linear-gradient"/><linearGradient id="linear-gradient-3" x1="971.38" y1="1630.69" x2="1463.76" y2="1138.31" xlink:href="#linear-gradient"/></defs><path class="cls-1" d="M1345,1425.77V1713H-21V1386.81c41.16,4.46,93,19.67,158.05,49.24C524.78,1612.17,622.62,1009.83,889.58,1276,1071.56,1457.37,1233.54,1380.4,1345,1425.77Z" transform="translate(21 -384)"/><path class="cls-2" d="M1369,546.1V768H0V599.14c173.5-135.41,289.14-298.64,554.85-166C929.78,620.33,1179.59,422.45,1369,546.1Z" transform="translate(21 -384)"/><path class="cls-3" d="M2135,1014.1V1236H766V1067.14c173.5-135.41,289.14-298.64,554.85-166C1695.78,1088.33,1945.59,890.45,2135,1014.1Z" transform="translate(21 -384)"/></svg>